<svg width="18" height="12" viewBox="0 0 18 12" fill="none" xmlns="http://www.w3.org/2000/svg">
<path d="M6.74986 10.5535L1.85658 5.66944C1.81452 5.61554 1.76182 5.57081 1.70173 5.53805C1.63883 5.50376 1.5693 5.48339 1.49785 5.47831L1.48899 5.60299L1.49785 5.47831C1.42639 5.47323 1.35468 5.48357 1.28756 5.50862C1.22045 5.53366 1.1595 5.57284 1.10885 5.6235C1.0582 5.67415 1.01902 5.7351 0.993967 5.80221C0.968918 5.86933 0.958582 5.94104 0.96366 6.0125C0.968738 6.08395 0.989112 6.15348 1.0234 6.21638C1.05617 6.27649 1.10092 6.3292 1.15484 6.37127L6.39817 11.6146C6.44356 11.6616 6.49789 11.6991 6.55797 11.7249C6.61849 11.7508 6.68361 11.7643 6.74944 11.7646L6.75036 11.7646C6.8162 11.7643 6.88131 11.7508 6.94183 11.7249C7.00191 11.6991 7.05624 11.6616 7.10162 11.6146C7.10195 11.6143 7.10228 11.6139 7.1026 11.6136L17.595 1.12127C17.6489 1.0792 17.6936 1.02649 17.7264 0.966378C17.7607 0.903481 17.7811 0.833951 17.7861 0.762496C17.7912 0.691038 17.7809 0.619327 17.7558 0.552212C17.7308 0.4851 17.6916 0.424153 17.641 0.373498C17.5903 0.322843 17.5294 0.283665 17.4622 0.258616C17.3951 0.233566 17.3234 0.223231 17.252 0.228309C17.1805 0.233387 17.111 0.253761 17.0481 0.28805C16.988 0.320814 16.9353 0.365553 16.8932 0.419469L6.74986 10.5535Z" fill="#F5F5F5" stroke="#F5F5F5" stroke-width="0.25"/>
</svg>
