<svg width="287" height="50" viewBox="0 0 287 50" fill="none" xmlns="http://www.w3.org/2000/svg">
<path d="M0 48.4721V1.19208H6.97024V42.4256H31.744V48.4721H0Z" fill="#F5F5F5"/>
<path d="M40.3728 42.7616H67.078V48.4721H33.4865V1.19208H66.2382V7.23855H40.3728V21.5989H60.5277V27.3934H40.3728V42.7616Z" fill="#F5F5F5"/>
<path d="M89.4361 49.4799C84.8452 49.4799 80.8422 48.5281 77.4271 46.6246C74.0679 44.7211 71.4646 41.9778 69.6171 38.3947C67.7695 34.7556 66.8738 30.3047 66.9297 25.042C66.9857 19.7794 67.9935 15.3285 69.953 11.6894C71.9685 7.99436 74.7398 5.19507 78.2669 3.29155C81.794 1.33205 85.9089 0.352295 90.6117 0.352295C96.7702 0.352295 101.641 1.75194 105.224 4.55123C108.807 7.29454 111.159 11.3255 112.278 16.6442L105.56 17.5679C104.664 13.7609 102.845 11.0456 100.101 9.422C97.358 7.74242 94.1948 6.90263 90.6117 6.90263C84.9012 6.90263 80.6743 8.49823 77.931 11.6894C75.2436 14.8246 73.844 19.1355 73.732 24.6221C73.732 30.3887 75.2436 34.8676 78.2669 38.0587C81.3461 41.194 85.657 42.7616 91.1996 42.7616C95.0066 42.7616 98.3098 41.8098 101.109 39.9063C103.908 37.9468 105.644 34.9515 106.316 30.9206H94.6427V25.6299H113.202V48.4721H108.415L106.82 39.1505H106.652C106.092 40.6061 105.112 42.1457 103.712 43.7693C102.369 45.3369 100.493 46.6806 98.0859 47.8003C95.7345 48.92 92.8512 49.4799 89.4361 49.4799Z" fill="#F5F5F5"/>
<path d="M136.65 49.6478C129.092 49.6478 123.325 47.4364 119.35 43.0135C115.375 38.5346 113.388 32.5162 113.388 24.9581C113.388 19.9753 114.228 15.6644 115.907 12.0253C117.643 8.33027 120.218 5.475 123.633 3.45951C127.104 1.38803 131.443 0.352295 136.65 0.352295C144.208 0.352295 149.946 2.59173 153.865 7.07059C157.84 11.4935 159.828 17.456 159.828 24.9581C159.828 29.8288 158.932 34.1397 157.141 37.8908C155.405 41.5859 152.802 44.4691 149.331 46.5406C145.915 48.6121 141.689 49.6478 136.65 49.6478ZM136.566 42.9295C141.996 42.9295 146.083 41.2499 148.827 37.8908C151.57 34.5316 152.942 30.2207 152.942 24.9581C152.942 19.6954 151.57 15.3845 148.827 12.0253C146.139 8.6102 142.052 6.90263 136.566 6.90263C131.191 6.90263 127.104 8.52622 124.305 11.7734C121.562 15.0206 120.19 19.4155 120.19 24.9581C120.19 28.4292 120.778 31.5364 121.954 34.2797C123.129 36.967 124.921 39.0945 127.328 40.6621C129.792 42.1737 132.871 42.9295 136.566 42.9295Z" fill="#F5F5F5"/>
<path d="M162.717 48.4721V1.19208H179.26C185.307 1.19208 189.982 2.19983 193.285 4.21532C196.644 6.17482 198.324 9.72992 198.324 14.8806C198.324 18.4637 197.4 21.459 195.552 23.8663C193.761 26.2737 191.046 27.4774 187.406 27.4774C189.59 27.4774 191.213 27.9533 192.277 28.9051C193.341 29.8568 194.069 31.0605 194.461 32.5161C194.853 33.9158 195.104 35.3714 195.216 36.883C195.328 38.3947 195.496 39.7663 195.72 40.998C195.944 42.2297 196.392 43.1255 197.064 43.6853C197.736 44.1892 198.884 44.1332 200.507 43.5174V47.7163C199.723 48.3881 198.688 48.836 197.4 49.06C196.168 49.3399 194.937 49.2559 193.705 48.808C192.473 48.4161 191.409 47.5763 190.514 46.2887C189.674 44.945 189.254 43.0135 189.254 40.4941C189.254 37.5269 189.086 35.2035 188.75 33.5239C188.414 31.8443 187.63 30.6126 186.399 29.8288C185.167 29.045 183.236 28.5971 180.604 28.4852C177.973 28.3172 174.362 28.3172 169.771 28.4852V48.4721H162.717ZM169.771 23.2785H179.512C182.368 23.2785 184.719 23.1105 186.567 22.7746C188.414 22.3827 189.786 21.6269 190.682 20.5072C191.633 19.3875 192.109 17.6799 192.109 15.3845C192.109 12.7532 191.549 10.8496 190.43 9.67393C189.31 8.49823 187.658 7.77042 185.475 7.49049C183.347 7.15457 180.744 6.98661 177.665 6.98661H169.771V23.2785Z" fill="#F5F5F5"/>
<path d="M203.276 48.4721V1.19208H219.82C225.866 1.19208 230.541 2.19983 233.844 4.21532C237.203 6.17482 238.883 9.72992 238.883 14.8806C238.883 18.4637 237.959 21.459 236.111 23.8663C234.32 26.2737 231.605 27.4774 227.966 27.4774C230.149 27.4774 231.773 27.9533 232.836 28.9051C233.9 29.8568 234.628 31.0605 235.02 32.5161C235.412 33.9158 235.664 35.3714 235.776 36.883C235.888 38.3947 236.055 39.7663 236.279 40.998C236.503 42.2297 236.951 43.1255 237.623 43.6853C238.295 44.1892 239.443 44.1332 241.066 43.5174V47.7163C240.282 48.3881 239.247 48.836 237.959 49.06C236.727 49.3399 235.496 49.2559 234.264 48.808C233.032 48.4161 231.969 47.5763 231.073 46.2887C230.233 44.945 229.813 43.0135 229.813 40.4941C229.813 37.5269 229.645 35.2035 229.309 33.5239C228.973 31.8443 228.189 30.6126 226.958 29.8288C225.726 29.045 223.795 28.5971 221.163 28.4852C218.532 28.3172 214.921 28.3172 210.33 28.4852V48.4721H203.276ZM210.33 23.2785H220.072C222.927 23.2785 225.278 23.1105 227.126 22.7746C228.973 22.3827 230.345 21.6269 231.241 20.5072C232.192 19.3875 232.668 17.6799 232.668 15.3845C232.668 12.7532 232.108 10.8496 230.989 9.67393C229.869 8.49823 228.217 7.77042 226.034 7.49049C223.907 7.15457 221.303 6.98661 218.224 6.98661H210.33V23.2785Z" fill="#F5F5F5"/>
<path d="M263.822 49.6478C256.264 49.6478 250.497 47.4364 246.522 43.0135C242.547 38.5346 240.56 32.5162 240.56 24.9581C240.56 19.9753 241.4 15.6644 243.079 12.0253C244.815 8.33027 247.39 5.475 250.805 3.45951C254.276 1.38803 258.615 0.352295 263.822 0.352295C271.38 0.352295 277.118 2.59173 281.038 7.07059C285.012 11.4935 287 17.456 287 24.9581C287 29.8288 286.104 34.1397 284.313 37.8908C282.577 41.5859 279.974 44.4691 276.503 46.5406C273.088 48.6121 268.861 49.6478 263.822 49.6478ZM263.738 42.9295C269.169 42.9295 273.255 41.2499 275.999 37.8908C278.742 34.5316 280.114 30.2207 280.114 24.9581C280.114 19.6954 278.742 15.3845 275.999 12.0253C273.311 8.6102 269.224 6.90263 263.738 6.90263C258.363 6.90263 254.276 8.52622 251.477 11.7734C248.734 15.0206 247.362 19.4155 247.362 24.9581C247.362 28.4292 247.95 31.5364 249.126 34.2797C250.301 36.967 252.093 39.0945 254.5 40.6621C256.964 42.1737 260.043 42.9295 263.738 42.9295Z" fill="#F5F5F5"/>
</svg>
