<svg width="233" height="40" viewBox="0 0 233 40" fill="none" xmlns="http://www.w3.org/2000/svg">
<path d="M0 39.046V0.68143H5.65588V34.1397H25.7581V39.046H0Z" fill="#F5F5F5"/>
<path d="M32.7598 34.4123H54.4293V39.046H27.1721V0.68143H53.7479V5.58773H32.7598V17.2402H49.1142V21.9421H32.7598V34.4123Z" fill="#F5F5F5"/>
<path d="M72.5714 39.8637C68.8462 39.8637 65.5981 39.0914 62.8269 37.5469C60.1012 36.0023 57.9888 33.7763 56.4896 30.8688C54.9905 27.916 54.2636 24.3044 54.309 20.0341C54.3545 15.7638 55.1722 12.1522 56.7622 9.19932C58.3976 6.20102 60.6463 3.92959 63.5084 2.38501C66.3704 0.795002 69.7094 0 73.5254 0C78.5226 0 82.4749 1.13572 85.3823 3.40716C88.2898 5.63316 90.1978 8.90403 91.1063 13.2198L85.6549 13.9693C84.928 10.8802 83.4516 8.67689 81.2256 7.35945C78.9996 5.99659 76.4328 5.31516 73.5254 5.31516C68.8917 5.31516 65.4618 6.60988 63.2358 9.19932C61.0552 11.7433 59.9195 15.2413 59.8286 19.6934C59.8286 24.3725 61.0552 28.0068 63.5084 30.5963C66.0069 33.1403 69.505 34.4123 74.0024 34.4123C77.0916 34.4123 79.7719 33.64 82.0433 32.0954C84.3147 30.5054 85.723 28.075 86.2682 24.8041H76.7963V20.5111H91.8559V39.046H87.9718L86.677 31.4821H86.5407C86.0865 32.6633 85.2915 33.9126 84.1557 35.23C83.0654 36.502 81.5436 37.5923 79.5901 38.5009C77.6821 39.4094 75.3426 39.8637 72.5714 39.8637Z" fill="#F5F5F5"/>
<path d="M110.882 40C104.749 40 100.07 38.2056 96.8447 34.6167C93.6193 30.9824 92.0066 26.0988 92.0066 19.9659C92.0066 15.9228 92.688 12.4248 94.0509 9.47189C95.4592 6.4736 97.5489 4.15673 100.32 2.52129C103.137 0.840432 106.657 0 110.882 0C117.015 0 121.672 1.81715 124.852 5.45145C128.077 9.04032 129.69 13.8785 129.69 19.9659C129.69 23.9182 128.963 27.4162 127.509 30.46C126.101 33.4583 123.988 35.7978 121.172 37.4787C118.401 39.1596 114.971 40 110.882 40ZM110.814 34.5486C115.221 34.5486 118.537 33.1857 120.763 30.46C122.989 27.7342 124.102 24.2362 124.102 19.9659C124.102 15.6956 122.989 12.1976 120.763 9.47189C118.582 6.70074 115.266 5.31516 110.814 5.31516C106.453 5.31516 103.137 6.63259 100.865 9.26746C98.6392 11.9023 97.5262 15.4685 97.5262 19.9659C97.5262 22.7825 98.0032 25.3038 98.9572 27.5298C99.9112 29.7104 101.365 31.4367 103.318 32.7087C105.317 33.9353 107.816 34.5486 110.814 34.5486Z" fill="#F5F5F5"/>
<path d="M132.034 39.046V0.68143H145.458C150.364 0.68143 154.158 1.49915 156.838 3.13458C159.564 4.72459 160.926 7.60931 160.926 11.7888C160.926 14.6962 160.177 17.1266 158.678 19.0801C157.224 21.0335 155.021 22.0102 152.068 22.0102C153.84 22.0102 155.157 22.3964 156.02 23.1687C156.883 23.9409 157.474 24.9177 157.792 26.0988C158.11 27.2345 158.314 28.4157 158.405 29.6422C158.496 30.8688 158.632 31.9818 158.814 32.9813C158.996 33.9807 159.359 34.7076 159.904 35.1618C160.449 35.5707 161.381 35.5253 162.698 35.0256V38.4327C162.062 38.9779 161.222 39.3413 160.177 39.523C159.177 39.7501 158.178 39.682 157.179 39.3186C156.179 39.0006 155.316 38.3191 154.589 37.2743C153.908 36.184 153.567 34.6167 153.567 32.5724C153.567 30.1647 153.431 28.2794 153.158 26.9165C152.886 25.5537 152.25 24.5542 151.25 23.9182C150.251 23.2822 148.683 22.9188 146.548 22.8279C144.413 22.6917 141.483 22.6917 137.758 22.8279V39.046H132.034ZM137.758 18.6031H145.662C147.979 18.6031 149.887 18.4668 151.386 18.1942C152.886 17.8762 153.999 17.2629 154.725 16.3543C155.498 15.4458 155.884 14.0602 155.884 12.1976C155.884 10.0625 155.43 8.51789 154.521 7.56388C153.612 6.60988 152.272 6.01931 150.501 5.79216C148.774 5.51959 146.662 5.38331 144.163 5.38331H137.758V18.6031Z" fill="#F5F5F5"/>
<path d="M164.945 39.046V0.68143H178.369C183.275 0.68143 187.069 1.49915 189.749 3.13458C192.475 4.72459 193.837 7.60931 193.837 11.7888C193.837 14.6962 193.088 17.1266 191.589 19.0801C190.135 21.0335 187.932 22.0102 184.979 22.0102C186.751 22.0102 188.068 22.3964 188.931 23.1687C189.794 23.9409 190.385 24.9177 190.703 26.0988C191.021 27.2345 191.225 28.4157 191.316 29.6422C191.407 30.8688 191.543 31.9818 191.725 32.9813C191.907 33.9807 192.27 34.7076 192.815 35.1618C193.36 35.5707 194.292 35.5253 195.609 35.0256V38.4327C194.973 38.9779 194.133 39.3413 193.088 39.523C192.088 39.7501 191.089 39.682 190.09 39.3186C189.09 39.0006 188.227 38.3191 187.5 37.2743C186.819 36.184 186.478 34.6167 186.478 32.5724C186.478 30.1647 186.342 28.2794 186.069 26.9165C185.797 25.5537 185.161 24.5542 184.161 23.9182C183.162 23.2822 181.594 22.9188 179.459 22.8279C177.324 22.6917 174.394 22.6917 170.669 22.8279V39.046H164.945ZM170.669 18.6031H178.573C180.89 18.6031 182.798 18.4668 184.297 18.1942C185.797 17.8762 186.91 17.2629 187.636 16.3543C188.409 15.4458 188.795 14.0602 188.795 12.1976C188.795 10.0625 188.341 8.51789 187.432 7.56388C186.523 6.60988 185.183 6.01931 183.412 5.79216C181.685 5.51959 179.573 5.38331 177.074 5.38331H170.669V18.6031Z" fill="#F5F5F5"/>
<path d="M214.074 40C207.941 40 203.262 38.2056 200.036 34.6167C196.811 30.9824 195.198 26.0988 195.198 19.9659C195.198 15.9228 195.88 12.4248 197.243 9.47189C198.651 6.4736 200.741 4.15673 203.512 2.52129C206.328 0.840432 209.849 0 214.074 0C220.207 0 224.863 1.81715 228.043 5.45145C231.269 9.04032 232.881 13.8785 232.881 19.9659C232.881 23.9182 232.155 27.4162 230.701 30.46C229.293 33.4583 227.18 35.7978 224.363 37.4787C221.592 39.1596 218.162 40 214.074 40ZM214.006 34.5486C218.412 34.5486 221.729 33.1857 223.955 30.46C226.181 27.7342 227.294 24.2362 227.294 19.9659C227.294 15.6956 226.181 12.1976 223.955 9.47189C221.774 6.70074 218.458 5.31516 214.006 5.31516C209.645 5.31516 206.328 6.63259 204.057 9.26746C201.831 11.9023 200.718 15.4685 200.718 19.9659C200.718 22.7825 201.195 25.3038 202.149 27.5298C203.103 29.7104 204.557 31.4367 206.51 32.7087C208.509 33.9353 211.007 34.5486 214.006 34.5486Z" fill="#F5F5F5"/>
</svg>
