<svg width="80" height="14" viewBox="0 0 80 14" fill="none" xmlns="http://www.w3.org/2000/svg">
<path d="M0 13.4748V0.432583H1.92274V11.8068H8.75656V13.4748H0Z" fill="#F5F5F5"/>
<path d="M11.1368 11.8995H18.5034V13.4748H9.23725V0.432583H18.2718V2.1005H11.1368V6.0618H16.6965V7.66022H11.1368V11.8995Z" fill="#F5F5F5"/>
<path d="M24.6709 13.7527C23.4045 13.7527 22.3003 13.4902 21.3582 12.9651C20.4316 12.44 19.7135 11.6833 19.2038 10.6949C18.6942 9.69106 18.4471 8.46329 18.4625 7.01159C18.478 5.55988 18.756 4.33211 19.2965 3.32827C19.8525 2.30899 20.6169 1.53681 21.5899 1.01172C22.5628 0.471192 23.698 0.200928 24.9952 0.200928C26.694 0.200928 28.0376 0.58702 29.026 1.3592C30.0144 2.11594 30.663 3.22789 30.9719 4.69504L29.1187 4.94986C28.8716 3.89969 28.3697 3.15067 27.6129 2.7028C26.8562 2.23949 25.9836 2.00784 24.9952 2.00784C23.42 2.00784 22.254 2.44798 21.4972 3.32827C20.7559 4.19312 20.3698 5.38228 20.339 6.89576C20.339 8.48646 20.7559 9.72195 21.5899 10.6022C22.4393 11.4671 23.6285 11.8995 25.1574 11.8995C26.2075 11.8995 27.1187 11.637 27.8909 11.1119C28.6631 10.5714 29.1418 9.74512 29.3272 8.63317H26.1072V7.17375H31.2267V13.4748H29.9063L29.4662 10.9034H29.4198C29.2654 11.3049 28.9951 11.7296 28.609 12.1775C28.2384 12.6099 27.721 12.9806 27.0569 13.2894C26.4083 13.5983 25.613 13.7527 24.6709 13.7527Z" fill="#F5F5F5"/>
<path d="M37.6948 13.7991C35.6099 13.7991 34.0192 13.1891 32.9227 11.969C31.8262 10.7335 31.278 9.07332 31.278 6.98842C31.278 5.61393 31.5096 4.42477 31.9729 3.42093C32.4517 2.40165 33.1621 1.61402 34.1042 1.05805C35.0617 0.486636 36.2585 0.200928 37.6948 0.200928C39.7797 0.200928 41.3627 0.818674 42.4437 2.05417C43.5402 3.27422 44.0885 4.91897 44.0885 6.98842C44.0885 8.33202 43.8414 9.52118 43.3472 10.5559C42.8684 11.5752 42.1503 12.3705 41.1928 12.942C40.2507 13.5134 39.0847 13.7991 37.6948 13.7991ZM37.6716 11.9458C39.1697 11.9458 40.2971 11.4825 41.0538 10.5559C41.8105 9.62929 42.1889 8.44013 42.1889 6.98842C42.1889 5.53672 41.8105 4.34755 41.0538 3.42093C40.3125 2.47887 39.1851 2.00784 37.6716 2.00784C36.189 2.00784 35.0617 2.4557 34.2895 3.35144C33.5327 4.24717 33.1544 5.4595 33.1544 6.98842C33.1544 7.94593 33.3165 8.80305 33.6408 9.55979C33.9652 10.3011 34.4594 10.8879 35.1234 11.3204C35.803 11.7373 36.6524 11.9458 37.6716 11.9458Z" fill="#F5F5F5"/>
<path d="M44.8853 13.4748V0.432583H49.4489C51.1169 0.432583 52.4064 0.710569 53.3176 1.26654C54.2442 1.80707 54.7075 2.78774 54.7075 4.20856C54.7075 5.19696 54.4527 6.02319 53.9431 6.68727C53.4489 7.35135 52.6998 7.68339 51.696 7.68339C52.2983 7.68339 52.7462 7.81466 53.0396 8.0772C53.333 8.33974 53.5338 8.67178 53.6419 9.07332C53.75 9.45941 53.8195 9.86094 53.8504 10.2779C53.8813 10.6949 53.9276 11.0733 53.9894 11.413C54.0512 11.7528 54.1747 11.9999 54.36 12.1543C54.5454 12.2933 54.862 12.2779 55.3098 12.108V13.2663C55.0936 13.4516 54.8079 13.5751 54.4527 13.6369C54.1129 13.7141 53.7732 13.691 53.4334 13.5674C53.0937 13.4593 52.8002 13.2277 52.5531 12.8725C52.3215 12.5018 52.2056 11.969 52.2056 11.274C52.2056 10.4555 52.1593 9.81461 52.0666 9.3513C51.974 8.88799 51.7578 8.54823 51.418 8.33202C51.0783 8.11581 50.5454 7.99226 49.8196 7.96137C49.0937 7.91504 48.0976 7.91504 46.8312 7.96137V13.4748H44.8853ZM46.8312 6.52511H49.5184C50.3061 6.52511 50.9547 6.47878 51.4643 6.38612C51.974 6.27801 52.3524 6.06952 52.5995 5.76065C52.862 5.45178 52.9933 4.98074 52.9933 4.34755C52.9933 3.6217 52.8388 3.09662 52.53 2.7723C52.2211 2.44798 51.7655 2.24721 51.1632 2.17C50.5763 2.07733 49.8582 2.031 49.0088 2.031H46.8312V6.52511Z" fill="#F5F5F5"/>
<path d="M56.0736 13.4748V0.432583H60.6372C62.3051 0.432583 63.5946 0.710569 64.5058 1.26654C65.4324 1.80707 65.8957 2.78774 65.8957 4.20856C65.8957 5.19696 65.6409 6.02319 65.1313 6.68727C64.6371 7.35135 63.8881 7.68339 62.8842 7.68339C63.4865 7.68339 63.9344 7.81466 64.2278 8.0772C64.5212 8.33974 64.722 8.67178 64.8301 9.07332C64.9382 9.45941 65.0077 9.86094 65.0386 10.2779C65.0695 10.6949 65.1158 11.0733 65.1776 11.413C65.2394 11.7528 65.3629 11.9999 65.5482 12.1543C65.7336 12.2933 66.0502 12.2779 66.498 12.108V13.2663C66.2818 13.4516 65.9961 13.5751 65.6409 13.6369C65.3011 13.7141 64.9614 13.691 64.6216 13.5674C64.2819 13.4593 63.9884 13.2277 63.7413 12.8725C63.5097 12.5018 63.3939 11.969 63.3939 11.274C63.3939 10.4555 63.3475 9.81461 63.2549 9.3513C63.1622 8.88799 62.946 8.54823 62.6062 8.33202C62.2665 8.11581 61.7337 7.99226 61.0078 7.96137C60.282 7.91504 59.2858 7.91504 58.0195 7.96137V13.4748H56.0736ZM58.0195 6.52511H60.7067C61.4943 6.52511 62.1429 6.47878 62.6526 6.38612C63.1622 6.27801 63.5406 6.06952 63.7877 5.76065C64.0502 5.45178 64.1815 4.98074 64.1815 4.34755C64.1815 3.6217 64.027 3.09662 63.7182 2.7723C63.4093 2.44798 62.9537 2.24721 62.3514 2.17C61.7645 2.07733 61.0464 2.031 60.197 2.031H58.0195V6.52511Z" fill="#F5F5F5"/>
<path d="M72.7752 13.7991C70.6903 13.7991 69.0996 13.1891 68.0031 11.969C66.9066 10.7335 66.3583 9.07332 66.3583 6.98842C66.3583 5.61393 66.59 4.42477 67.0533 3.42093C67.532 2.40165 68.2424 1.61402 69.1845 1.05805C70.142 0.486636 71.3389 0.200928 72.7752 0.200928C74.8601 0.200928 76.443 0.818674 77.5241 2.05417C78.6206 3.27422 79.1688 4.91897 79.1688 6.98842C79.1688 8.33202 78.9217 9.52118 78.4276 10.5559C77.9488 11.5752 77.2307 12.3705 76.2732 12.942C75.3311 13.5134 74.1651 13.7991 72.7752 13.7991ZM72.752 11.9458C74.25 11.9458 75.3774 11.4825 76.1342 10.5559C76.8909 9.62929 77.2693 8.44013 77.2693 6.98842C77.2693 5.53672 76.8909 4.34755 76.1342 3.42093C75.3929 2.47887 74.2655 2.00784 72.752 2.00784C71.2694 2.00784 70.142 2.4557 69.3698 3.35144C68.6131 4.24717 68.2347 5.4595 68.2347 6.98842C68.2347 7.94593 68.3969 8.80305 68.7212 9.55979C69.0455 10.3011 69.5397 10.8879 70.2038 11.3204C70.8833 11.7373 71.7327 11.9458 72.752 11.9458Z" fill="#F5F5F5"/>
</svg>
