<svg width="16" height="16" viewBox="0 0 16 16" fill="none" xmlns="http://www.w3.org/2000/svg">
<path d="M15.0347 14.4641L11.8985 11.3211C12.9585 10.1142 13.5196 8.54702 13.4643 6.93865C13.4076 5.29048 12.7082 3.72993 11.5157 2.59083C10.3232 1.45173 8.73224 0.824543 7.08321 0.843432C5.43419 0.862322 3.85802 1.52579 2.69191 2.69191C1.52579 3.85802 0.862322 5.43419 0.843432 7.08321C0.824543 8.73224 1.45173 10.3232 2.59083 11.5157C3.72993 12.7082 5.29048 13.4076 6.93865 13.4643C8.54702 13.5196 10.1142 12.9585 11.3211 11.8985L14.4641 15.0347C14.5012 15.0727 14.5455 15.1029 14.5944 15.1236C14.6436 15.1445 14.6965 15.1552 14.75 15.1552C14.8034 15.1552 14.8564 15.1445 14.9056 15.1236C14.9542 15.103 14.9983 15.073 15.0353 15.0353C15.073 14.9983 15.103 14.9542 15.1236 14.9056C15.1445 14.8564 15.1552 14.8034 15.1552 14.75C15.1552 14.6965 15.1445 14.6436 15.1236 14.5944C15.1029 14.5455 15.0727 14.5012 15.0347 14.4641ZM1.65623 7.15617C1.65624 6.06839 1.97881 5.00505 2.58315 4.10059C3.18749 3.19612 4.04648 2.49117 5.05147 2.07489C6.05646 1.65861 7.16233 1.54969 8.22923 1.76191C9.29612 1.97413 10.2761 2.49795 11.0453 3.26714C11.8145 4.03633 12.3383 5.01634 12.5505 6.08323C12.7628 7.15013 12.6538 8.25599 12.2376 9.26099C11.8213 10.266 11.1163 11.125 10.2119 11.7293C9.30744 12.3336 8.24413 12.6562 7.15638 12.6562C5.69821 12.6544 4.30028 12.0743 3.2692 11.0433C2.23813 10.0122 1.65807 8.61431 1.65623 7.15617Z" fill="#F5F5F5" stroke="#F5F5F5" stroke-width="0.25"/>
</svg>
