<svg width="16" height="16" viewBox="0 0 16 16" fill="none" xmlns="http://www.w3.org/2000/svg">
<path d="M14.7339 8.27537L14.7339 8.27563C14.6693 8.62842 14.483 8.94736 14.2073 9.17683C13.9317 9.4063 13.5843 9.53173 13.2256 9.53125M14.7339 8.27537L4.85914 9.40625L4.88218 9.53125M14.7339 8.27537L15.5847 3.57147L15.5847 3.57139C15.5951 3.5138 15.5934 3.45468 15.5796 3.39781C15.5658 3.34095 15.5403 3.28759 15.5047 3.24115L15.5049 3.24099L15.4995 3.23487C15.4606 3.19036 15.4125 3.15472 15.3586 3.13038C15.3048 3.10606 15.2464 3.09357 15.1873 3.09375M14.7339 8.27537L15.1873 3.09375M13.2256 9.53125L13.2258 9.40625V9.53125H13.2256ZM13.2256 9.53125H4.88218M4.88218 9.53125L5.25093 11.5313M4.88218 9.53125H4.75508L5.25093 11.5313M5.25093 11.5313H12.9375H12.9376C13.3525 11.5314 13.7549 11.674 14.0773 11.9352C14.3998 12.1963 14.6229 12.5602 14.7094 12.9661C14.7959 13.3719 14.7405 13.7952 14.5524 14.1651C14.3644 14.535 14.0551 14.8292 13.6762 14.9985C13.2974 15.1678 12.8719 15.202 12.4709 15.0954C12.0699 14.9887 11.7176 14.7477 11.4729 14.4126C11.2282 14.0774 11.1059 13.6685 11.1264 13.254C11.1426 12.9277 11.2465 12.6136 11.425 12.3438H7.13761C7.28983 12.5737 7.38824 12.8363 7.42387 13.1121C7.47079 13.4754 7.40655 13.8444 7.2396 14.1704C7.07265 14.4964 6.81084 14.7642 6.48866 14.9385C6.16647 15.1128 5.79905 15.1854 5.4348 15.1467C5.07056 15.108 4.72658 14.9598 4.44821 14.7217C4.16985 14.4836 3.97015 14.1668 3.87544 13.813C3.78073 13.4591 3.79545 13.0849 3.91766 12.7396C4.03103 12.4193 4.23196 12.1378 4.4969 11.9267L2.54889 1.22316L2.5488 1.22265L2.5488 1.22265C2.54243 1.18677 2.52371 1.15425 2.49589 1.13071C2.4682 1.10728 2.43323 1.09422 2.39697 1.09375H1.125C1.01726 1.09375 0.913924 1.05095 0.837738 0.974762C0.761551 0.898575 0.71875 0.795244 0.71875 0.6875C0.71875 0.579756 0.761551 0.476425 0.837738 0.400238C0.913924 0.324051 1.01726 0.28125 1.125 0.28125H2.39766H2.39781C2.62513 0.281531 2.84512 0.361744 3.01926 0.507851C3.19341 0.653959 3.31063 0.856655 3.35041 1.08047M5.25093 11.5313L3.22734 1.10234M3.35041 1.08047L3.22734 1.10234M3.35041 1.08047L3.35038 1.08027L3.22734 1.10234M3.35041 1.08047L3.7116 3.09375M3.22734 1.10234L3.60703 3.21875M3.7116 3.09375H3.60703V3.21875M3.7116 3.09375H15.1873M3.7116 3.09375L3.73007 3.19668L3.60703 3.21875M3.60703 3.21875L15.1873 3.09375M15.1873 3.09375H15.1875V3.21875L15.1871 3.09375C15.1871 3.09375 15.1872 3.09375 15.1873 3.09375ZM4.7379 8.71875L3.86229 3.90625H14.7002L13.9325 8.12528L13.9325 8.12528L13.9322 8.12665C13.9039 8.29299 13.8174 8.44384 13.6881 8.55229C13.5588 8.66074 13.3952 8.71973 13.2265 8.71875H13.2258H4.7379ZM6.625 13.3438C6.625 13.5415 6.56635 13.7349 6.45647 13.8993C6.34659 14.0638 6.19041 14.1919 6.00768 14.2676C5.82496 14.3433 5.62389 14.3631 5.42991 14.3245C5.23593 14.286 5.05775 14.1907 4.91789 14.0509C4.77804 13.911 4.6828 13.7328 4.64421 13.5388C4.60563 13.3449 4.62543 13.1438 4.70112 12.9611C4.77681 12.7783 4.90498 12.6222 5.06943 12.5123C5.23388 12.4024 5.42722 12.3438 5.625 12.3438C5.89022 12.3438 6.14457 12.4491 6.33211 12.6366C6.51964 12.8242 6.625 13.0785 6.625 13.3438ZM13.9375 13.3438C13.9375 13.5415 13.8788 13.7349 13.769 13.8993C13.6591 14.0638 13.5029 14.1919 13.3202 14.2676C13.1375 14.3433 12.9364 14.3631 12.7424 14.3245C12.5484 14.286 12.3702 14.1907 12.2304 14.0509C12.0905 13.911 11.9953 13.7328 11.9567 13.5388C11.9181 13.3449 11.9379 13.1438 12.0136 12.9611C12.0893 12.7783 12.2175 12.6222 12.3819 12.5123C12.5464 12.4024 12.7397 12.3438 12.9375 12.3438C13.2027 12.3438 13.4571 12.4491 13.6446 12.6366C13.8321 12.8242 13.9375 13.0785 13.9375 13.3438Z" fill="#F5F5F5" stroke="#F5F5F5" stroke-width="0.25"/>
</svg>
