<svg width="18" height="18" viewBox="0 0 18 18" fill="none" xmlns="http://www.w3.org/2000/svg">
<path d="M14.7339 9.27537L14.7339 9.27563C14.6693 9.62842 14.483 9.94736 14.2073 10.1768C13.9317 10.4063 13.5843 10.5317 13.2256 10.5313M14.7339 9.27537L4.85914 10.4063L4.88218 10.5313M14.7339 9.27537L15.5847 4.57147L15.5847 4.57139C15.5951 4.5138 15.5934 4.45468 15.5796 4.39781C15.5658 4.34095 15.5403 4.28759 15.5047 4.24115L15.5049 4.24099L15.4995 4.23487C15.4606 4.19036 15.4125 4.15472 15.3586 4.13038C15.3048 4.10606 15.2464 4.09357 15.1873 4.09375M14.7339 9.27537L15.1873 4.09375M13.2256 10.5313L13.2258 10.4063V10.5313H13.2256ZM13.2256 10.5313H4.88218M4.88218 10.5313L5.25093 12.5313M4.88218 10.5313H4.75508L5.25093 12.5313M5.25093 12.5313H12.9375H12.9376C13.3525 12.5314 13.7549 12.674 14.0773 12.9352C14.3998 13.1963 14.6229 13.5602 14.7094 13.9661C14.7959 14.3719 14.7405 14.7952 14.5524 15.1651C14.3644 15.535 14.0551 15.8292 13.6762 15.9985C13.2974 16.1678 12.8719 16.202 12.4709 16.0954C12.0699 15.9887 11.7176 15.7477 11.4729 15.4126C11.2282 15.0774 11.1059 14.6685 11.1264 14.254C11.1426 13.9277 11.2465 13.6136 11.425 13.3438H7.13761C7.28983 13.5737 7.38824 13.8363 7.42387 14.1121C7.47079 14.4754 7.40655 14.8444 7.2396 15.1704C7.07265 15.4964 6.81084 15.7642 6.48866 15.9385C6.16647 16.1128 5.79905 16.1854 5.4348 16.1467C5.07056 16.108 4.72658 15.9598 4.44821 15.7217C4.16985 15.4836 3.97015 15.1668 3.87544 14.813C3.78073 14.4591 3.79545 14.0849 3.91766 13.7396C4.03103 13.4193 4.23196 13.1378 4.4969 12.9267L2.54889 2.22316L2.5488 2.22265L2.5488 2.22265C2.54243 2.18677 2.52371 2.15425 2.49589 2.13071C2.4682 2.10728 2.43323 2.09422 2.39697 2.09375H1.125C1.01726 2.09375 0.913924 2.05095 0.837738 1.97476C0.761551 1.89858 0.71875 1.79524 0.71875 1.6875C0.71875 1.57976 0.761551 1.47642 0.837738 1.40024C0.913924 1.32405 1.01726 1.28125 1.125 1.28125H2.39766H2.39781C2.62513 1.28153 2.84512 1.36174 3.01926 1.50785C3.19341 1.65396 3.31063 1.85666 3.35041 2.08047M5.25093 12.5313L3.22734 2.10234M3.35041 2.08047L3.22734 2.10234M3.35041 2.08047L3.35038 2.08027L3.22734 2.10234M3.35041 2.08047L3.7116 4.09375M3.22734 2.10234L3.60703 4.21875M3.7116 4.09375H3.60703V4.21875M3.7116 4.09375H15.1873M3.7116 4.09375L3.73007 4.19668L3.60703 4.21875M3.60703 4.21875L15.1873 4.09375M15.1873 4.09375H15.1875V4.21875L15.1871 4.09375C15.1871 4.09375 15.1872 4.09375 15.1873 4.09375ZM4.7379 9.71875L3.86229 4.90625H14.7002L13.9325 9.12528L13.9325 9.12528L13.9322 9.12665C13.9039 9.29299 13.8174 9.44384 13.6881 9.55229C13.5588 9.66074 13.3952 9.71973 13.2265 9.71875H13.2258H4.7379ZM6.625 14.3438C6.625 14.5415 6.56635 14.7349 6.45647 14.8993C6.34659 15.0638 6.19041 15.1919 6.00768 15.2676C5.82496 15.3433 5.62389 15.3631 5.42991 15.3245C5.23593 15.286 5.05775 15.1907 4.91789 15.0509C4.77804 14.911 4.6828 14.7328 4.64421 14.5388C4.60563 14.3449 4.62543 14.1438 4.70112 13.9611C4.77681 13.7783 4.90498 13.6222 5.06943 13.5123C5.23388 13.4024 5.42722 13.3438 5.625 13.3438C5.89022 13.3438 6.14457 13.4491 6.33211 13.6366C6.51964 13.8242 6.625 14.0785 6.625 14.3438ZM13.9375 14.3438C13.9375 14.5415 13.8788 14.7349 13.769 14.8993C13.6591 15.0638 13.5029 15.1919 13.3202 15.2676C13.1375 15.3433 12.9364 15.3631 12.7424 15.3245C12.5484 15.286 12.3702 15.1907 12.2304 15.0509C12.0905 14.911 11.9953 14.7328 11.9567 14.5388C11.9181 14.3449 11.9379 14.1438 12.0136 13.9611C12.0893 13.7783 12.2175 13.6222 12.3819 13.5123C12.5464 13.4024 12.7397 13.3438 12.9375 13.3438C13.2027 13.3438 13.4571 13.4491 13.6446 13.6366C13.8321 13.8242 13.9375 14.0785 13.9375 14.3438Z" fill="#F5F5F5" stroke="#F5F5F5" stroke-width="0.25"/>
<circle cx="13.5" cy="4.5" r="4.5" fill="#661F1E"/>
</svg>
